# xmcd
#
# Track frame offsets:
#	150
#	13313
#	25305
#	37232
#	64996
#	77580
#	94717
#	108905
#	121924
#	135978
#	154331
#	168120
#	186677
#	197749
#	212175
#	222334
#	235358
#	245725
#
# Disc length: 3470 seconds
#
# Revision: 1
# Processed by: cddbd v1.5.1PL2 Copyright (c) Steve Scherf et al.
# Submitted via: EasyCDDAExtractor 9.0.0.1
#
DISCID=0a0d8c12
DTITLE=Various Artist - Strictly Blues CD2
DYEAR=1900
DGENRE=Blues
TTITLE0=John Mayall - A Big Man
TTITLE1=John Lee Hooker - Frisco
TTITLE2=Elmore James - Pickin The Blues
TTITLE3=Brownie McGhee and Sonny Terry - Blowin The Fuses
TTITLE4=Lightnin Hopkins - Life I Used To Live
TTITLE5=Ike and Tina Turner - I Smell Trouble
TTITLE6=Johnny Winter - Low Down Gal Of Mine
TTITLE7=BB King - I m Working On The Building
TTITLE8=Lightning Slim - Good Morning Heartaches
TTITLE9=Brownie McGhee and Sonny Terry - I m A Stranger Here
TTITLE10=The Yardbirds with Jeff Beck - Jeffs Blues
TTITLE11=Santana - With A Little Help From My Friends
TTITLE12=Eric Clapton - Snake Drive
TTITLE13=Lightning Slim - Things I Used To Do
TTITLE14=Canned Heat - Rollin And Tumblin
TTITLE15=Johnny Guitar Watson - She Moves Me
TTITLE16=Johnny Winter - 38 32 20
TTITLE17=Jelly Roll Morton - Jelly Roll Blues
EXTD=
EXTT0=
EXTT1=
EXTT2=
EXTT3=
EXTT4=
EXTT5=
EXTT6=
EXTT7=
EXTT8=
EXTT9=
EXTT10=
EXTT11=
EXTT12=
EXTT13=
EXTT14=
EXTT15=
EXTT16=
EXTT17=
PLAYORDER=
